<svg xmlns="http://www.w3.org/2000/svg" viewBox="0 0 744.09 1052.4">
    <g>
        <path id="path3009" style="fill:#000000"
            d="m258.83 930.97c23.451 24.692 182.24 21.078 191.62 1.4253 11.465-9.0706 8.8441-39.909 8.8441-39.909l2.948-399.09c-1.56-50.4-46.46-79.43-48.03-111.18l-15.35-209.52c18.24-8.0628 4.2586-35.445 1.1317-44.516 10.944-16.126-0.96821-17.608-3.5739-20.127-32.832-3.0235-48.197-2.5196-84.156 0.50393 0 0-13.702 11.179-0.15264 19.242 3.1269 5.5432-23.451 35.175 0.52115 45.254l-16.24 211.51c-4.6903 35.779-42.083 55.192-45.731 101.55l3.0112 419.19s-0.0524 19.609 5.159 25.656z" />
    </g>
</svg>
